<svg width="62" height="61" viewBox="0 0 62 61" fill="none" xmlns="http://www.w3.org/2000/svg">
<path fill-rule="evenodd" clip-rule="evenodd" d="M30.9076 0C13.8165 0 0 13.9792 0 31.2733C0 45.0974 8.85271 56.7993 21.1338 60.9409C22.6692 61.2523 23.2317 60.268 23.2317 59.4401C23.2317 58.715 23.181 56.2299 23.181 53.6406C14.5833 55.5049 12.7929 49.9126 12.7929 49.9126C11.4112 46.2882 9.3639 45.3567 9.3639 45.3567C6.54986 43.4409 9.56888 43.4409 9.56888 43.4409C12.6904 43.648 14.3283 46.651 14.3283 46.651C17.0911 51.4141 21.5431 50.0683 23.3341 49.2397C23.5897 47.2204 24.409 45.8224 25.2789 45.046C18.4216 44.3209 11.2068 41.6287 11.2068 29.6161C11.2068 26.1989 12.4342 23.403 14.3789 21.2286C14.0721 20.4522 12.9972 17.2414 14.6864 12.9441C14.6864 12.9441 17.2961 12.1155 23.1804 16.1542C25.6997 15.4696 28.2978 15.1214 30.9076 15.1185C33.5173 15.1185 36.1776 15.4813 38.6342 16.1542C44.5192 12.1155 47.1289 12.9441 47.1289 12.9441C48.818 17.2414 47.7425 20.4522 47.4357 21.2286C49.4317 23.403 50.6085 26.1989 50.6085 29.6161C50.6085 41.6287 43.3937 44.2688 36.4851 45.046C37.6112 46.0296 38.583 47.8933 38.583 50.8448C38.583 55.0385 38.5324 58.4043 38.5324 59.4394C38.5324 60.268 39.0954 61.2523 40.6302 60.9415C52.9113 56.7986 61.764 45.0974 61.764 31.2733C61.8146 13.9792 47.9475 0 30.9076 0Z" fill="#24292F"/>
</svg>
