<?xml version="1.0" standalone="no"?>
<!DOCTYPE svg PUBLIC "-//W3C//DTD SVG 20010904//EN"
 "http://www.w3.org/TR/2001/REC-SVG-20010904/DTD/svg10.dtd">
<svg version="1.0" xmlns="http://www.w3.org/2000/svg"
 width="576.000000pt" height="576.000000pt" viewBox="0 0 576.000000 576.000000"
 preserveAspectRatio="xMidYMid meet">
<metadata>
Created by potrace 1.14, written by Peter Selinger 2001-2017
</metadata>
<g transform="translate(0.000000,576.000000) scale(0.100000,-0.100000)"
fill="#000000" stroke="none">
<path d="M2802 5425 c-18 -8 -36 -15 -40 -15 -4 0 -24 -17 -45 -37 -28 -26
-65 -90 -135 -232 -52 -108 -96 -198 -97 -201 -1 -5 -42 -91 -221 -455 -59
-121 -108 -222 -109 -225 -1 -5 -175 -364 -178 -367 -2 -1 -55 -10 -118 -18
-19 -3 -43 -6 -54 -9 -11 -2 -45 -7 -75 -11 -30 -4 -62 -9 -71 -10 -9 -2 -38
-6 -65 -10 -27 -3 -58 -7 -69 -9 -11 -2 -45 -7 -75 -11 -59 -8 -85 -13 -85
-15 0 -1 -21 -3 -47 -5 -26 -2 -51 -6 -55 -8 -5 -3 -40 -8 -78 -12 -75 -8 -97
-11 -123 -19 -9 -3 -42 -8 -72 -11 -30 -2 -66 -7 -79 -10 -12 -2 -42 -7 -65
-9 -22 -3 -50 -7 -61 -10 -11 -2 -41 -6 -66 -10 -25 -4 -57 -9 -70 -11 -13 -2
-44 -6 -69 -9 -25 -4 -56 -8 -70 -10 -14 -3 -42 -7 -63 -10 -37 -6 -96 -33
-128 -58 -9 -7 -29 -33 -44 -58 -25 -38 -29 -56 -30 -115 0 -122 -83 -30 902
-1006 259 -256 273 -272 268 -302 -7 -55 -16 -111 -21 -137 -2 -14 -7 -38 -9
-55 -3 -16 -8 -41 -10 -55 -3 -14 -7 -43 -11 -65 -3 -22 -7 -47 -9 -55 -2 -8
-7 -33 -10 -55 -3 -23 -8 -52 -10 -65 -3 -14 -8 -43 -11 -65 -3 -22 -9 -60
-14 -85 -5 -25 -12 -65 -16 -90 -3 -25 -8 -54 -10 -65 -3 -11 -7 -36 -10 -55
-3 -19 -7 -46 -10 -60 -2 -14 -7 -38 -9 -55 -3 -16 -10 -55 -15 -85 -6 -30
-12 -68 -14 -85 -1 -16 -6 -43 -9 -60 -4 -16 -9 -46 -11 -65 -3 -19 -7 -44 -9
-55 -4 -18 -12 -63 -23 -135 -3 -14 -7 -38 -11 -55 -25 -117 26 -225 135 -283
33 -18 152 -25 169 -10 7 6 13 7 13 3 0 -4 6 -3 13 3 6 5 55 32 107 59 52 28
131 70 175 93 44 24 108 58 143 77 35 18 75 41 88 49 13 9 24 13 24 9 0 -3 13
3 29 14 16 12 34 21 39 21 6 0 12 3 14 8 2 4 28 19 58 34 101 51 225 117 237
128 7 5 19 10 28 10 8 0 15 4 15 8 0 5 16 14 35 22 19 8 35 17 35 22 0 4 8 8
18 8 9 0 28 9 42 20 14 11 28 20 32 20 4 0 65 32 137 71 l131 70 52 -30 c29
-16 55 -29 58 -29 3 1 23 -10 45 -24 22 -13 90 -51 150 -83 148 -78 250 -132
310 -165 28 -15 95 -51 150 -80 55 -29 123 -65 150 -80 50 -27 117 -63 300
-161 206 -109 203 -108 275 -105 36 1 79 10 96 18 38 21 91 74 112 113 18 35
25 144 12 201 -5 21 -12 59 -15 84 -4 25 -8 52 -10 60 -5 18 -17 86 -20 115
-1 11 -5 36 -8 55 -4 19 -9 49 -12 65 -22 126 -48 285 -61 360 -8 50 -17 101
-19 115 -10 59 -45 267 -49 285 -2 11 -7 42 -10 68 -4 27 -9 59 -12 70 -5 28
-24 141 -30 188 -5 37 -5 37 353 392 853 846 787 778 809 842 16 49 10 135
-14 182 -26 50 -93 105 -147 121 -38 11 -61 15 -165 28 -25 3 -67 9 -95 14
-27 5 -70 11 -95 15 -25 3 -54 7 -65 9 -20 3 -88 13 -152 22 -18 2 -50 7 -70
10 -21 3 -51 8 -68 9 -16 2 -57 9 -90 14 -33 6 -78 13 -100 16 -48 6 -111 15
-145 20 -14 3 -45 7 -70 10 -25 3 -52 7 -60 10 -8 2 -39 7 -69 10 -30 4 -61 8
-70 10 -9 1 -34 5 -56 9 -86 12 -121 18 -135 21 -8 2 -25 4 -37 4 -17 1 -28
13 -44 48 -12 26 -59 123 -105 217 -46 94 -84 176 -84 183 0 7 -4 13 -9 13 -5
0 -13 10 -17 23 -4 12 -54 119 -112 237 -57 118 -136 280 -174 360 -195 406
-210 428 -302 455 -62 19 -111 18 -154 0z m118 -857 c19 -40 35 -75 35 -78 1
-3 53 -108 115 -235 63 -126 115 -232 115 -235 1 -3 54 -113 119 -245 129
-263 157 -301 243 -329 27 -8 73 -18 103 -21 30 -4 64 -9 75 -11 31 -6 87 -14
130 -19 22 -2 49 -6 60 -8 26 -6 91 -16 135 -22 19 -2 53 -7 75 -10 89 -13
112 -16 145 -21 41 -5 87 -12 115 -18 11 -2 47 -7 80 -11 32 -3 62 -8 65 -10
6 -4 143 -21 190 -24 50 -4 40 -20 -94 -152 -538 -532 -747 -744 -761 -771 -8
-18 -18 -45 -21 -61 -2 -16 -5 -32 -6 -35 -1 -4 2 -32 7 -62 10 -69 12 -76 19
-125 3 -22 8 -51 11 -65 9 -46 15 -76 20 -116 2 -21 7 -50 10 -64 2 -14 7 -38
10 -55 3 -16 7 -41 10 -55 7 -40 76 -452 81 -485 3 -16 12 -70 21 -118 8 -48
13 -90 10 -93 -3 -3 -34 10 -69 29 -88 48 -269 145 -393 210 -22 12 -48 28
-57 36 -10 8 -18 11 -18 6 0 -4 -6 -3 -12 2 -12 10 -72 42 -238 130 -163 87
-235 126 -245 133 -22 17 -112 36 -150 33 -34 -4 -222 -94 -379 -183 -43 -24
-157 -85 -301 -161 -66 -35 -138 -73 -160 -85 -22 -13 -62 -34 -90 -48 -27
-14 -83 -44 -124 -66 -41 -22 -77 -40 -81 -40 -4 0 -1 33 7 72 13 72 16 89 27
158 3 19 8 46 10 60 3 14 10 57 17 95 6 39 13 79 15 90 1 11 5 34 8 50 2 17 7
45 10 63 3 17 9 47 12 65 3 17 7 43 9 57 3 14 7 36 10 50 3 14 8 45 11 70 3
25 7 52 9 60 2 8 7 31 10 50 3 19 10 60 15 90 31 169 33 249 7 302 -9 20 -91
110 -181 200 -91 90 -289 286 -440 436 -152 151 -276 277 -276 281 0 4 10 7
23 8 12 1 38 4 57 7 19 4 53 9 75 11 22 3 49 7 61 9 12 2 45 7 74 11 29 4 62
8 73 11 11 2 55 8 97 14 42 6 85 12 96 14 20 4 103 16 144 21 14 2 39 6 55 9
17 3 50 8 75 11 25 3 56 8 70 10 58 8 117 17 140 20 14 3 54 9 90 14 153 21
179 47 295 285 50 105 95 198 98 206 4 8 11 22 16 30 6 8 49 96 96 195 169
354 240 495 246 495 3 0 21 -33 39 -72z"/>
</g>
</svg>
