<svg width="70" height="65" viewBox="0 0 70 65" fill="none" xmlns="http://www.w3.org/2000/svg">
<path d="M48.5025 45.3956C51.0858 45.1339 53.0455 42.9557 52.9564 40.3416C52.8675 37.7279 50.6403 35.6367 47.968 35.6367H47.7899C45.0282 35.7238 42.8906 37.9893 42.9798 40.6903C43.0689 41.9972 43.6032 43.1298 44.405 43.914C41.3763 49.7519 36.7442 54.0213 29.7962 57.5937C25.0749 60.0333 20.1759 60.9048 15.2767 60.2949C11.2681 59.7721 8.15036 58.0297 6.19036 55.1539C3.34003 50.8846 3.07288 46.2666 5.47804 41.6488C7.17061 38.3377 9.84265 35.8979 11.5352 34.678C11.179 33.5454 10.6444 31.6286 10.3772 30.2345C-2.53915 39.3833 -1.20286 51.756 2.71661 57.5937C5.65605 61.9503 11.6244 64.6516 18.2161 64.6516C19.9976 64.6516 21.7791 64.477 23.5608 64.0417C34.9629 61.8633 43.6035 55.2412 48.5025 45.3956ZM64.1804 34.5912C57.4105 26.8364 47.4336 22.5671 36.0316 22.5671H34.6066C33.8049 20.9987 32.1123 19.9529 30.2416 19.9529H30.0634C27.3021 20.0402 25.1645 22.3055 25.2534 25.0067C25.3426 27.6206 27.5693 29.7118 30.2416 29.7118H30.4197C32.3794 29.6247 34.072 28.4048 34.7846 26.7492H36.3879C43.158 26.7492 49.5714 28.666 55.3618 32.4127C59.8155 35.2881 63.0224 39.0348 64.8039 43.5656C66.3182 47.2251 66.2291 50.7975 64.6256 53.8472C62.1315 58.465 57.9451 60.9918 52.4221 60.9918C48.8588 60.9918 45.4741 59.9463 43.6924 59.1621C42.7126 60.0333 40.9309 61.4273 39.6837 62.299C43.5143 64.0415 47.4336 65 51.1749 65C59.7263 65 66.0511 60.3818 68.4563 55.764C71.0393 50.7102 70.861 41.9972 64.1804 34.5912ZM18.9287 46.8764C19.0179 49.4903 21.2448 51.5812 23.9171 51.5812H24.0954C26.8567 51.4944 28.9945 49.2289 28.9053 46.5279C28.8164 43.9138 26.5893 41.8229 23.9171 41.8229H23.7391C23.5608 41.8229 23.2934 41.8229 23.1156 41.9097C19.4633 35.985 17.949 29.5374 18.4835 22.5669C18.8396 17.3389 20.6213 12.808 23.7391 9.06127C26.3221 5.83739 31.3105 4.26906 34.6957 4.18214C44.1378 4.00776 48.146 15.509 48.4134 20.1271C49.5714 20.3884 51.5312 20.9985 52.8675 21.4342C51.7984 7.31909 42.8906 0 34.3394 0C26.3221 0 18.9287 5.66356 15.989 14.0281C11.8915 25.1808 14.5638 35.8979 19.5521 44.3497C19.107 44.9596 18.8396 45.9179 18.9287 46.8764Z" fill="#764ABC"/>
</svg>
